HIERARCHY
ROOT Hips
{
	OFFSET 74.204300 -23.375916 94.188103
	CHANNELS 6 Xposition Yposition Zposition Xrotation Yrotation Zrotation
	JOINT spine
	{
		OFFSET 0.000000 -0.448574 7.800583
		CHANNELS 3 Xrotation Yrotation Zrotation
		JOINT spine1
		{
			OFFSET 0.000000 -0.000002 10.136398
			CHANNELS 3 Xrotation Yrotation Zrotation
			JOINT spine2
			{
				OFFSET 0.000000 0.000000 9.712509
				CHANNELS 3 Xrotation Yrotation Zrotation
				JOINT Neck
				{
					OFFSET 0.000000 -1.188875 24.936104
					CHANNELS 3 Xrotation Yrotation Zrotation
					JOINT Head
					{
						OFFSET 0.000000 0.000000 7.533844
						CHANNELS 3 Xrotation Yrotation Zrotation
						End Site
						{
							OFFSET 0.000000 6.014017 18.236099
						}
					}
				}
				JOINT RightShoulder
				{
					OFFSET -4.089653 0.569454 10.488808
					CHANNELS 3 Xrotation Yrotation Zrotation
					JOINT RightArm
					{
						OFFSET 0.000000 -0.000002 13.757004
						CHANNELS 3 Xrotation Yrotation Zrotation
						JOINT RightArmRoll
						{
							OFFSET 0.000000 -0.000002 6.944778
							CHANNELS 3 Xrotation Yrotation Zrotation
							JOINT RightForeArm
							{
								OFFSET 0.000000 -0.000004 20.227707
								CHANNELS 3 Xrotation Yrotation Zrotation
								JOINT RightForeArmRoll
								{
									OFFSET 0.000000 0.000000 7.793121
									CHANNELS 3 Xrotation Yrotation Zrotation
									JOINT RightHand
									{
										OFFSET 0.000000 -0.000004 15.639099
										CHANNELS 3 Xrotation Yrotation Zrotation
										End Site
										{
											OFFSET 0.000000 0.000000 0.100006
										}
									}
								}
							}
						}
					}
				}
				JOINT LeftShoulder
				{
					OFFSET 4.089653 0.569454 10.488808
					CHANNELS 3 Xrotation Yrotation Zrotation
					JOINT LeftArm
					{
						OFFSET 0.000000 -0.000002 13.757004
						CHANNELS 3 Xrotation Yrotation Zrotation
						JOINT LeftArmRoll
						{
							OFFSET 0.000000 -0.000002 6.944778
							CHANNELS 3 Xrotation Yrotation Zrotation
							JOINT LeftForeArm
							{
								OFFSET 0.000000 -0.000004 20.227707
								CHANNELS 3 Xrotation Yrotation Zrotation
								JOINT LeftForeArmRoll
								{
									OFFSET 0.000000 0.000000 7.793121
									CHANNELS 3 Xrotation Yrotation Zrotation
									JOINT LeftHand
									{
										OFFSET 0.000000 -0.000004 15.639099
										CHANNELS 3 Xrotation Yrotation Zrotation
										End Site
										{
											OFFSET 0.000000 0.000000 0.100006
										}
									}
								}
							}
						}
					}
				}
			}
		}
	}
	JOINT RightUpLeg
	{
		OFFSET -6.914162 1.063580 -1.267883
		CHANNELS 3 Xrotation Yrotation Zrotation
		JOINT RightUpLegRoll
		{
			OFFSET 0.000000 -0.000004 18.337799
			CHANNELS 3 Xrotation Yrotation Zrotation
			JOINT RightLeg
			{
				OFFSET 0.000000 0.000004 -22.708504
				CHANNELS 3 Xrotation Yrotation Zrotation
				JOINT RightLegRoll
				{
					OFFSET 0.000000 -0.000004 22.782799
					CHANNELS 3 Xrotation Yrotation Zrotation
					JOINT RightFoot
					{
						OFFSET 0.000000 -0.000002 18.962898
						CHANNELS 3 Xrotation Yrotation Zrotation
						JOINT RightToeBase
						{
							OFFSET 0.000000 -0.000002 15.852005
							CHANNELS 3 Xrotation Yrotation Zrotation
							End Site
							{
								OFFSET 0.006721 0.884892 7.677002
							}
						}
					}
				}
			}
		}
	}
	JOINT LeftUpLeg
	{
		OFFSET 6.914162 1.063580 -1.267883
		CHANNELS 3 Xrotation Yrotation Zrotation
		JOINT LeftUpLegRoll
		{
			OFFSET 0.000000 -0.000004 18.337898
			CHANNELS 3 Xrotation Yrotation Zrotation
			JOINT LeftLeg
			{
				OFFSET 0.000000 -0.000002 22.708405
				CHANNELS 3 Xrotation Yrotation Zrotation
				JOINT LeftLegRoll
				{
					OFFSET 0.000000 -0.000004 22.993408
					CHANNELS 3 Xrotation Yrotation Zrotation
					JOINT LeftFoot
					{
						OFFSET 0.000000 -0.000004 18.752197
						CHANNELS 3 Xrotation Yrotation Zrotation
						JOINT LeftToeBase
						{
							OFFSET 0.000000 -0.000002 15.852005
							CHANNELS 3 Xrotation Yrotation Zrotation
							End Site
							{
								OFFSET -0.030113 0.884892 7.677017
							}
						}
					}
				}
			}
		}
	}
}
MOTION
Frames: 9
Frame Time: 0.041667
54.296204 -7.991199 93.911789 -2.319784 -0.207544 5.736633 1.084401 -0.001013 0.258256 6.169079 0.007338 0.529499 7.814129 0.013597 0.529395 -14.880417 20.265591 8.448068 1.908486 -20.355726 5.108064 -4.529462 -39.682597 -3.276832 144.443160 -10.940494 63.486438 -0.000003 0.000000 0.000000 67.309738 -23.612968 18.010813 -0.000004 0.000009 -3.001139 -5.000049 -7.999560 -0.000146 -15.718162 61.644677 18.627608 -61.953757 121.365536 54.256168 0.000002 0.000004 0.000001 12.849854 3.085872 0.639580 0.000003 -0.000011 3.000010 -5.000153 7.999751 -0.000053 -5.223601 -176.119133 -0.986979 -179.999991 0.000005 -1.020002 164.097385 1.206985 -0.844148 -0.000002 -0.000002 0.336534 72.643857 6.109886 4.107216 25.456894 -7.347960 -0.000001 -5.425286 174.617078 4.735430 -0.000005 -0.000005 -0.997670 -11.713718 3.613623 0.851524 -0.000007 0.000001 0.027624 69.112444 -5.798295 -4.944049 25.459952 7.355006 -0.004363 
54.273602 -7.988899 93.908203 -2.312492 -0.202341 5.733639 1.081760 -0.002041 0.258284 6.163980 0.005340 0.529468 7.809032 0.011599 0.529388 -14.797881 20.233701 8.481423 1.828750 -20.283404 5.142806 -4.516632 -39.733167 -3.266236 144.472407 -11.070385 63.629291 -0.000001 0.000001 -0.000001 67.366675 -23.550774 17.966732 -0.000005 0.000009 -3.001142 -5.000047 -7.999561 -0.000147 -15.697282 61.638851 18.603137 -61.951086 121.289434 54.284076 0.000001 0.000003 -0.000002 12.922411 3.129931 0.635837 0.000001 -0.000010 3.000011 -5.000151 7.999748 -0.000055 -5.234884 -176.139118 -0.998411 -179.999991 0.000005 -1.020001 164.092781 1.206959 -0.844051 -0.000004 -0.000002 0.336609 72.645516 6.108798 4.109059 25.456897 -7.347960 -0.000001 -5.437487 174.596287 4.727474 -0.000005 -0.000005 -0.997204 -11.716684 3.610412 0.851518 -0.000007 0.000001 0.028052 69.103845 -5.794872 -4.954165 25.459945 7.355007 -0.004363 
54.254105 -7.989468 93.909401 -2.304962 -0.197349 5.731166 1.079101 -0.003067 0.258323 6.158861 0.003345 0.529465 7.803914 0.009604 0.529410 -14.716563 20.202918 8.514889 1.749649 -20.212333 5.177566 -4.503534 -39.781853 -3.255029 144.504796 -11.200844 63.775921 0.000001 -0.000000 0.000001 67.426596 -23.487421 17.921875 -0.000005 0.000008 -3.001142 -5.000046 -7.999561 -0.000149 -15.676018 61.633988 18.578244 -61.948204 121.213072 54.312268 0.000002 0.000003 -0.000000 12.995501 3.174824 0.631891 0.000003 -0.000009 3.000009 -5.000151 7.999749 -0.000053 -5.246646 -176.159103 -1.009652 -179.999991 0.000005 -1.020002 164.087467 1.206926 -0.843939 -0.000002 -0.000001 0.336707 72.647661 6.107637 4.110964 25.456894 -7.347961 -0.000000 -5.450282 174.576480 4.719850 -0.000004 -0.000005 -0.996747 -11.720045 3.607087 0.851505 -0.000007 0.000001 0.028448 69.095239 -5.791484 -4.964190 25.459950 7.355006 -0.004362 
54.234695 -7.993478 93.909103 -2.297275 -0.192506 5.729058 1.076439 -0.004092 0.258372 6.153740 0.001351 0.529482 7.798790 0.007610 0.529452 -14.636004 20.172885 8.548420 1.671016 -20.142218 5.212388 -4.490224 -39.829142 -3.243374 144.539726 -11.332617 63.922654 0.000001 0.000002 0.000000 67.488689 -23.423155 17.876289 -0.000005 0.000010 -3.001140 -5.000048 -7.999561 -0.000146 -15.654473 61.629780 18.553036 -61.946742 121.136137 54.342447 0.000001 0.000003 0.000001 13.068905 3.220321 0.627776 0.000001 -0.000011 3.000009 -5.000152 7.999751 -0.000053 -5.258769 -176.178104 -1.020848 -179.999991 0.000005 -1.020002 164.081662 1.206892 -0.844815 -0.000003 -0.000001 0.336821 72.650024 6.106470 4.112955 25.456889 -7.347960 -0.000001 -5.463491 174.556699 4.712524 -0.000004 -0.000005 -0.996298 -11.723709 3.603690 0.851490 -0.000007 0.000001 0.028820 69.086660 -5.788128 -4.974317 25.459952 7.355007 -0.004362 
54.200005 -7.988467 93.908104 -2.289483 -0.187749 5.727144 1.073781 -0.005116 0.258424 6.148610 -0.000643 0.529508 7.793661 0.005617 0.529504 -14.555972 20.143437 8.582071 1.592687 -20.072659 5.247342 -4.476805 -39.875836 -3.231472 144.576486 -11.464801 64.069954 0.000001 0.000000 -0.000000 67.552183 -23.358509 17.830501 -0.000005 0.000010 -3.001141 -5.000049 -7.999559 -0.000147 -15.632783 61.625983 18.527667 -61.946735 121.058642 54.374480 0.000000 0.000005 -0.000000 13.142534 3.266150 0.623508 0.000001 -0.000010 3.000010 -5.000151 7.999749 -0.000054 -5.271082 -176.198089 -1.031870 -179.999991 0.000005 -1.020001 164.075569 1.207813 -0.844412 -0.000003 -0.000001 0.336944 72.652586 6.105267 4.115033 25.456895 -7.347960 -0.000001 -5.476940 174.536906 4.705372 -0.000004 -0.000005 -0.995852 -11.727672 3.600260 0.851484 -0.000007 0.000001 0.029180 69.078177 -5.784740 -4.984334 25.459945 7.355006 -0.004362 
54.177399 -7.988946 93.907608 -2.281686 -0.183012 5.725289 1.071121 -0.006139 0.258479 6.143490 -0.002636 0.529538 7.788541 0.003624 0.529560 -14.476103 20.114207 8.615826 1.514486 -20.003363 5.282482 -4.463330 -39.922234 -3.219466 144.614612 -11.596498 64.218292 -0.000001 0.000002 -0.000000 67.615949 -23.293879 17.784387 -0.000005 0.000008 -3.001142 -5.000046 -7.999559 -0.000147 -15.611012 61.622199 18.502219 -61.945349 120.981597 54.404864 0.000002 0.000005 -0.000001 13.216180 3.312060 0.619109 0.000001 -0.000011 3.000010 -5.000152 7.999751 -0.000052 -5.283443 -176.217091 -1.042956 -179.999991 0.000005 -1.020002 164.069367 1.207776 -0.844281 -0.000003 -0.000002 0.337070 72.655249 6.104038 4.116998 25.456895 -7.347960 -0.000001 -5.490445 174.518109 4.698176 -0.000004 -0.000005 -0.995408 -11.731535 3.596812 0.851467 -0.000007 0.000001 0.029536 69.069694 -5.781387 -4.994357 25.459950 7.355007 -0.004362 
54.152603 -7.989100 93.905098 -2.273908 -0.178235 5.723333 1.068452 -0.007163 0.258529 6.138360 -0.004629 0.529561 7.783412 0.001631 0.529607 -14.395938 20.084853 8.649639 1.436268 -19.934027 5.317888 -4.449908 -39.969113 -3.207567 144.653353 -11.728442 64.364957 0.000002 0.000001 0.000000 67.679204 -23.229656 17.738298 -0.000004 0.000011 -3.001140 -5.000047 -7.999559 -0.000147 -15.589371 61.618292 18.476907 -61.945513 120.904088 54.436857 0.000002 0.000002 -0.000001 13.289736 3.357785 0.614615 0.000002 -0.000011 3.000010 -5.000154 7.999750 -0.000052 -5.295707 -176.237090 -1.053980 -179.999991 0.000005 -1.020002 164.063261 1.208698 -0.843878 -0.000003 -0.000002 0.337191 72.657811 6.102837 4.119076 25.456894 -7.347960 -0.000000 -5.503850 174.498329 4.691006 -0.000005 -0.000005 -0.994962 -11.735397 3.593383 0.851453 -0.000007 0.000001 0.029899 69.061115 -5.778018 -5.004480 25.459950 7.355006 -0.004363 
54.129303 -7.989726 93.905205 -2.266269 -0.173351 5.721110 1.065803 -0.008188 0.258574 6.133240 -0.006624 0.529571 7.778292 -0.000364 0.529641 -14.315361 20.055184 8.683625 1.357877 -19.864155 5.353620 -4.436589 -40.016801 -3.195917 144.692039 -11.859714 64.510399 0.000001 0.000001 -0.000000 67.740969 -23.166345 17.692425 -0.000005 0.000011 -3.001140 -5.000048 -7.999558 -0.000145 -15.567914 61.613852 18.451795 -61.944413 120.827098 54.466971 0.000002 0.000004 0.000001 13.363003 3.403091 0.610049 0.000003 -0.000009 3.000010 -5.000154 7.999751 -0.000053 -5.307726 -176.256064 -1.065183 -179.999991 0.000005 -1.019005 164.057551 1.208665 -0.843758 -0.000002 -0.000002 0.337301 72.660065 6.101671 4.121076 25.456899 -7.347959 -0.000000 -5.516941 174.478535 4.683636 -0.000005 -0.000005 -0.994510 -11.738962 3.590005 0.851436 -0.000008 0.000001 0.030278 69.052632 -5.774619 -5.014492 25.459950 7.355007 -0.004362 
54.107704 -7.992758 93.909798 -2.258811 -0.168300 5.718471 1.063142 -0.009215 0.258610 6.128130 -0.008620 0.529557 7.773177 -0.002360 0.529654 -14.234002 20.024743 8.717735 1.279139 -19.793550 5.389758 -4.423468 -40.065982 -3.184706 144.729974 -11.990197 64.653444 0.000001 0.000002 0.000000 67.800460 -23.104218 17.647151 -0.000005 0.000009 -3.001141 -5.000046 -7.999563 -0.000145 -15.546803 61.608655 18.427084 -61.942125 120.750750 54.495125 0.000000 0.000005 -0.000000 13.436076 3.447693 0.605454 0.000003 -0.000011 3.000011 -5.000150 7.999751 -0.000055 -5.319353 -176.276063 -1.076432 -179.999991 0.000005 -1.019005 164.052456 1.208634 -0.844662 -0.000003 -0.000001 0.337392 72.662018 6.100546 4.122897 25.456892 -7.347960 -0.000001 -5.529569 174.458741 4.675939 -0.000005 -0.000005 -0.994051 -11.742227 3.586723 0.851427 -0.000007 0.000001 0.030684 69.043951 -5.771233 -5.024619 25.459952 7.355007 -0.004362 
